<svg xmlns="http://www.w3.org/2000/svg" version="1.1" width="10.258in" height="5.7219999999999995in" viewBox = " 0 0 923.2199999999999 514.9799999999999" >
<!-- Front--> 
<g transform="translate(22.5, 22.5) " > 
<polygon style="stroke:#000000; fill:none; stroke-width:0.9" points="0, 0 42.435, 0 42.435, 10.62 84.87, 10.62 84.87, 0 111.87, 0 111.87, 10.62 138.87, 10.62 138.87, 0 165.87, 0 165.87, 10.62 192.87, 10.62 192.87, 0 219.87, 0 219.87, 10.62 262.305, 10.62 262.305, 0 304.74, 0 304.74, 43.56 294.12, 43.56 294.12, 87.12 304.74, 87.12 304.74, 114.12 294.12, 114.12 294.12, 157.68 304.74, 157.68 304.74, 201.23999999999998 262.305, 201.23999999999998 262.305, 190.61999999999998 219.87, 190.61999999999998 219.87, 201.23999999999998 192.87, 201.23999999999998 192.87, 190.61999999999998 165.87, 190.61999999999998 165.87, 201.23999999999998 138.87, 201.23999999999998 138.87, 190.61999999999998 111.87, 190.61999999999998 111.87, 201.23999999999998 84.87, 201.23999999999998 84.87, 190.61999999999998 42.435, 190.61999999999998 42.435, 201.23999999999998 0, 201.24 0, 157.68 10.62, 157.68 10.62, 114.12 0, 114.12 0, 87.12 10.62, 87.12 10.62, 43.56 0, 43.56 "/> 
</g>
<!-- Back--> 
<g transform="translate(327.24, 22.5) " > 
<polygon style="stroke:#000000; fill:none; stroke-width:0.9" points="0, 0 42.435, 0 42.435, 10.62 84.87, 10.62 84.87, 0 111.87, 0 111.87, 10.62 138.87, 10.62 138.87, 0 165.87, 0 165.87, 10.62 192.87, 10.62 192.87, 0 219.87, 0 219.87, 10.62 262.305, 10.62 262.305, 0 304.74, 0 304.74, 43.56 294.12, 43.56 294.12, 87.12 304.74, 87.12 304.74, 114.12 294.12, 114.12 294.12, 157.68 304.74, 157.68 304.74, 201.23999999999998 262.305, 201.23999999999998 262.305, 190.61999999999998 219.87, 190.61999999999998 219.87, 201.23999999999998 192.87, 201.23999999999998 192.87, 190.61999999999998 165.87, 190.61999999999998 165.87, 201.23999999999998 138.87, 201.23999999999998 138.87, 190.61999999999998 111.87, 190.61999999999998 111.87, 201.23999999999998 84.87, 201.23999999999998 84.87, 190.61999999999998 42.435, 190.61999999999998 42.435, 201.23999999999998 0, 201.24 0, 157.68 10.62, 157.68 10.62, 114.12 0, 114.12 0, 87.12 10.62, 87.12 10.62, 43.56 0, 43.56 "/> 
</g>
<!-- Left--> 
<g transform="translate(631.98, 22.5) " > 
<polygon style="stroke:#000000; fill:none; stroke-width:0.9" points="10.62, 0 46.934999999999995, 0 46.934999999999995, 10.62 93.86999999999999, 10.62 93.86999999999999, 0 120.86999999999999, 0 120.86999999999999, 10.62 147.87, 10.62 147.87, 0 174.87, 0 174.87, 10.62 221.80499999999998, 10.62 221.80499999999998, 0 258.11999999999995, 0 258.11999999999995, 43.56 268.73999999999995, 43.56 268.73999999999995, 87.12 258.11999999999995, 87.12 258.11999999999995, 114.12 268.73999999999995, 114.12 268.73999999999995, 157.68 258.11999999999995, 157.68 258.12, 201.23999999999998 221.80499999999998, 201.23999999999998 221.80499999999998, 190.61999999999998 174.87, 190.61999999999998 174.87, 201.23999999999998 147.87, 201.23999999999998 147.87, 190.61999999999998 120.86999999999999, 190.61999999999998 120.86999999999999, 201.23999999999998 93.86999999999999, 201.23999999999998 93.86999999999999, 190.61999999999998 46.934999999999995, 190.61999999999998 46.934999999999995, 201.23999999999998 10.62, 201.24 10.62, 157.68 0, 157.68 0, 114.12 10.62, 114.12 10.62, 87.12 0, 87.12 0, 43.56 10.62, 43.56 "/> 
</g>
<!-- Right--> 
<g transform="translate(631.98, 223.73999999999998) " > 
<polygon style="stroke:#000000; fill:none; stroke-width:0.9" points="10.62, 0 46.934999999999995, 0 46.934999999999995, 10.62 93.86999999999999, 10.62 93.86999999999999, 0 120.86999999999999, 0 120.86999999999999, 10.62 147.87, 10.62 147.87, 0 174.87, 0 174.87, 10.62 221.80499999999998, 10.62 221.80499999999998, 0 258.11999999999995, 0 258.11999999999995, 43.56 268.73999999999995, 43.56 268.73999999999995, 87.12 258.11999999999995, 87.12 258.11999999999995, 114.12 268.73999999999995, 114.12 268.73999999999995, 157.68 258.11999999999995, 157.68 258.12, 201.23999999999998 221.80499999999998, 201.23999999999998 221.80499999999998, 190.61999999999998 174.87, 190.61999999999998 174.87, 201.23999999999998 147.87, 201.23999999999998 147.87, 190.61999999999998 120.86999999999999, 190.61999999999998 120.86999999999999, 201.23999999999998 93.86999999999999, 201.23999999999998 93.86999999999999, 190.61999999999998 46.934999999999995, 190.61999999999998 46.934999999999995, 201.23999999999998 10.62, 201.24 10.62, 157.68 0, 157.68 0, 114.12 10.62, 114.12 10.62, 87.12 0, 87.12 0, 43.56 10.62, 43.56 "/> 
</g>
<!-- Top--> 
<g transform="translate(22.5, 223.73999999999998) " > 
<polygon style="stroke:#000000; fill:none; stroke-width:0.9" points="10.62, 10.62 42.435, 10.62 42.435, 0 84.87, 0 84.87, 10.62 111.87, 10.62 111.87, 0 138.87, 0 138.87, 10.62 165.87, 10.62 165.87, 0 192.87, 0 192.87, 10.62 219.87, 10.62 219.87, 0 262.305, 0 262.305, 10.62 294.12, 10.62 294.12, 46.934999999999995 304.74, 46.934999999999995 304.74, 93.86999999999999 294.12, 93.86999999999999 294.12, 120.86999999999999 304.74, 120.86999999999999 304.74, 147.87 294.12, 147.87 294.12, 174.87 304.74, 174.87 304.74, 221.80499999999998 294.12, 221.80499999999998 294.12, 258.11999999999995 262.305, 258.11999999999995 262.305, 268.73999999999995 219.87, 268.73999999999995 219.87, 258.11999999999995 192.87, 258.11999999999995 192.87, 268.73999999999995 165.87, 268.73999999999995 165.87, 258.11999999999995 138.87, 258.11999999999995 138.87, 268.73999999999995 111.87, 268.73999999999995 111.87, 258.11999999999995 84.87, 258.11999999999995 84.87, 268.73999999999995 42.435, 268.73999999999995 42.435, 258.11999999999995 10.62, 258.12 10.62, 221.80499999999998 0, 221.80499999999998 0, 174.87 10.62, 174.87 10.62, 147.87 0, 147.87 0, 120.86999999999999 10.62, 120.86999999999999 10.62, 93.86999999999999 0, 93.86999999999999 0, 46.934999999999995 10.62, 46.934999999999995 "/> 
</g>
<!-- Bottom--> 
<g transform="translate(327.24, 223.73999999999998) " > 
<polygon style="stroke:#000000; fill:none; stroke-width:0.9" points="10.62, 10.62 42.435, 10.62 42.435, 0 84.87, 0 84.87, 10.62 111.87, 10.62 111.87, 0 138.87, 0 138.87, 10.62 165.87, 10.62 165.87, 0 192.87, 0 192.87, 10.62 219.87, 10.62 219.87, 0 262.305, 0 262.305, 10.62 294.12, 10.62 294.12, 46.934999999999995 304.74, 46.934999999999995 304.74, 93.86999999999999 294.12, 93.86999999999999 294.12, 120.86999999999999 304.74, 120.86999999999999 304.74, 147.87 294.12, 147.87 294.12, 174.87 304.74, 174.87 304.74, 221.80499999999998 294.12, 221.80499999999998 294.12, 258.11999999999995 262.305, 258.11999999999995 262.305, 268.73999999999995 219.87, 268.73999999999995 219.87, 258.11999999999995 192.87, 258.11999999999995 192.87, 268.73999999999995 165.87, 268.73999999999995 165.87, 258.11999999999995 138.87, 258.11999999999995 138.87, 268.73999999999995 111.87, 268.73999999999995 111.87, 258.11999999999995 84.87, 258.11999999999995 84.87, 268.73999999999995 42.435, 268.73999999999995 42.435, 258.11999999999995 10.62, 258.12 10.62, 221.80499999999998 0, 221.80499999999998 0, 174.87 10.62, 174.87 10.62, 147.87 0, 147.87 0, 120.86999999999999 10.62, 120.86999999999999 10.62, 93.86999999999999 0, 93.86999999999999 0, 46.934999999999995 10.62, 46.934999999999995 "/> 
</g></svg>