<svg xmlns="http://www.w3.org/2000/svg" version="1.1" width="10.457999999999998in" height="5.747in" viewBox = " 0 0 941.2199999999998 517.23" >
<!-- Front--> 
<g transform="translate(22.5, 22.5) " > 
<polygon style="stroke:#000000; fill:none; stroke-width:0.9" points="0, 0 39.059999999999995, 0 39.059999999999995, 10.62 78.11999999999999, 10.62 78.11999999999999, 0 105.11999999999999, 0 105.11999999999999, 10.62 132.12, 10.62 132.12, 0 159.12, 0 159.12, 10.62 186.12, 10.62 186.12, 0 213.12, 0 213.12, 10.62 252.17999999999998, 10.62 252.17999999999998, 0 291.23999999999995, 0 291.23999999999995, 31.697999999999997 280.61999999999995, 31.697999999999997 280.61999999999995, 63.395999999999994 291.23999999999995, 63.395999999999994 291.23999999999995, 95.094 280.61999999999995, 95.094 280.61999999999995, 126.79199999999999 291.23999999999995, 126.79199999999999 291.24, 158.48999999999998 252.17999999999998, 158.48999999999998 252.17999999999998, 147.86999999999998 213.12, 147.86999999999998 213.12, 158.48999999999998 186.12, 158.48999999999998 186.12, 147.86999999999998 159.12, 147.86999999999998 159.12, 158.48999999999998 132.12, 158.48999999999998 132.12, 147.86999999999998 105.11999999999999, 147.86999999999998 105.11999999999999, 158.48999999999998 78.11999999999999, 158.48999999999998 78.11999999999999, 147.86999999999998 39.059999999999995, 147.86999999999998 39.059999999999995, 158.48999999999998 0, 158.48999999999998 0, 126.79199999999999 10.62, 126.79199999999999 10.62, 95.094 0, 95.094 0, 63.395999999999994 10.62, 63.395999999999994 10.62, 31.697999999999997 0, 31.697999999999997 "/> 
</g>
<!-- Back--> 
<g transform="translate(313.73999999999995, 22.5) " > 
<polygon style="stroke:#000000; fill:none; stroke-width:0.9" points="0, 0 39.059999999999995, 0 39.059999999999995, 10.62 78.11999999999999, 10.62 78.11999999999999, 0 105.11999999999999, 0 105.11999999999999, 10.62 132.12, 10.62 132.12, 0 159.12, 0 159.12, 10.62 186.12, 10.62 186.12, 0 213.12, 0 213.12, 10.62 252.17999999999998, 10.62 252.17999999999998, 0 291.23999999999995, 0 291.23999999999995, 31.697999999999997 280.61999999999995, 31.697999999999997 280.61999999999995, 63.395999999999994 291.23999999999995, 63.395999999999994 291.23999999999995, 95.094 280.61999999999995, 95.094 280.61999999999995, 126.79199999999999 291.23999999999995, 126.79199999999999 291.24, 158.48999999999998 252.17999999999998, 158.48999999999998 252.17999999999998, 147.86999999999998 213.12, 147.86999999999998 213.12, 158.48999999999998 186.12, 158.48999999999998 186.12, 147.86999999999998 159.12, 147.86999999999998 159.12, 158.48999999999998 132.12, 158.48999999999998 132.12, 147.86999999999998 105.11999999999999, 147.86999999999998 105.11999999999999, 158.48999999999998 78.11999999999999, 158.48999999999998 78.11999999999999, 147.86999999999998 39.059999999999995, 147.86999999999998 39.059999999999995, 158.48999999999998 0, 158.48999999999998 0, 126.79199999999999 10.62, 126.79199999999999 10.62, 95.094 0, 95.094 0, 63.395999999999994 10.62, 63.395999999999994 10.62, 31.697999999999997 0, 31.697999999999997 "/> 
</g>
<!-- Left--> 
<g transform="translate(604.9799999999999, 22.5) " > 
<polygon style="stroke:#000000; fill:none; stroke-width:0.9" points="10.62, 0 44.684999999999995, 0 44.684999999999995, 10.62 89.36999999999999, 10.62 89.36999999999999, 0 116.36999999999999, 0 116.36999999999999, 10.62 143.37, 10.62 143.37, 0 170.37, 0 170.37, 10.62 197.37, 10.62 197.37, 0 224.37, 0 224.37, 10.62 269.05499999999995, 10.62 269.05499999999995, 0 303.11999999999995, 0 303.11999999999995, 31.697999999999997 313.73999999999995, 31.697999999999997 313.73999999999995, 63.395999999999994 303.11999999999995, 63.395999999999994 303.11999999999995, 95.094 313.73999999999995, 95.094 313.73999999999995, 126.79199999999999 303.11999999999995, 126.79199999999999 303.12, 158.48999999999998 269.05499999999995, 158.48999999999998 269.05499999999995, 147.86999999999998 224.37, 147.86999999999998 224.37, 158.48999999999998 197.37, 158.48999999999998 197.37, 147.86999999999998 170.37, 147.86999999999998 170.37, 158.48999999999998 143.37, 158.48999999999998 143.37, 147.86999999999998 116.36999999999999, 147.86999999999998 116.36999999999999, 158.48999999999998 89.36999999999999, 158.48999999999998 89.36999999999999, 147.86999999999998 44.684999999999995, 147.86999999999998 44.684999999999995, 158.48999999999998 10.62, 158.48999999999998 10.62, 126.79199999999999 0, 126.79199999999999 0, 95.094 10.62, 95.094 10.62, 63.395999999999994 0, 63.395999999999994 0, 31.697999999999997 10.62, 31.697999999999997 "/> 
</g>
<!-- Right--> 
<g transform="translate(604.9799999999999, 180.99) " > 
<polygon style="stroke:#000000; fill:none; stroke-width:0.9" points="10.62, 0 44.684999999999995, 0 44.684999999999995, 10.62 89.36999999999999, 10.62 89.36999999999999, 0 116.36999999999999, 0 116.36999999999999, 10.62 143.37, 10.62 143.37, 0 170.37, 0 170.37, 10.62 197.37, 10.62 197.37, 0 224.37, 0 224.37, 10.62 269.05499999999995, 10.62 269.05499999999995, 0 303.11999999999995, 0 303.11999999999995, 31.697999999999997 313.73999999999995, 31.697999999999997 313.73999999999995, 63.395999999999994 303.11999999999995, 63.395999999999994 303.11999999999995, 95.094 313.73999999999995, 95.094 313.73999999999995, 126.79199999999999 303.11999999999995, 126.79199999999999 303.12, 158.48999999999998 269.05499999999995, 158.48999999999998 269.05499999999995, 147.86999999999998 224.37, 147.86999999999998 224.37, 158.48999999999998 197.37, 158.48999999999998 197.37, 147.86999999999998 170.37, 147.86999999999998 170.37, 158.48999999999998 143.37, 158.48999999999998 143.37, 147.86999999999998 116.36999999999999, 147.86999999999998 116.36999999999999, 158.48999999999998 89.36999999999999, 158.48999999999998 89.36999999999999, 147.86999999999998 44.684999999999995, 147.86999999999998 44.684999999999995, 158.48999999999998 10.62, 158.48999999999998 10.62, 126.79199999999999 0, 126.79199999999999 0, 95.094 10.62, 95.094 10.62, 63.395999999999994 0, 63.395999999999994 0, 31.697999999999997 10.62, 31.697999999999997 "/> 
</g>
<!-- Top--> 
<g transform="translate(22.5, 180.99) " > 
<polygon style="stroke:#000000; fill:none; stroke-width:0.9" points="10.62, 10.62 39.059999999999995, 10.62 39.059999999999995, 0 78.11999999999999, 0 78.11999999999999, 10.62 105.11999999999999, 10.62 105.11999999999999, 0 132.12, 0 132.12, 10.62 159.12, 10.62 159.12, 0 186.12, 0 186.12, 10.62 213.12, 10.62 213.12, 0 252.17999999999998, 0 252.17999999999998, 10.62 280.61999999999995, 10.62 280.61999999999995, 44.684999999999995 291.23999999999995, 44.684999999999995 291.23999999999995, 89.36999999999999 280.61999999999995, 89.36999999999999 280.61999999999995, 116.36999999999999 291.23999999999995, 116.36999999999999 291.23999999999995, 143.37 280.61999999999995, 143.37 280.61999999999995, 170.37 291.23999999999995, 170.37 291.23999999999995, 197.37 280.61999999999995, 197.37 280.61999999999995, 224.37 291.23999999999995, 224.37 291.23999999999995, 269.05499999999995 280.61999999999995, 269.05499999999995 280.62, 303.11999999999995 252.17999999999998, 303.11999999999995 252.17999999999998, 313.73999999999995 213.12, 313.73999999999995 213.12, 303.11999999999995 186.12, 303.11999999999995 186.12, 313.73999999999995 159.12, 313.73999999999995 159.12, 303.11999999999995 132.12, 303.11999999999995 132.12, 313.73999999999995 105.11999999999999, 313.73999999999995 105.11999999999999, 303.11999999999995 78.11999999999999, 303.11999999999995 78.11999999999999, 313.73999999999995 39.059999999999995, 313.73999999999995 39.059999999999995, 303.11999999999995 10.62, 303.12 10.62, 269.05499999999995 0, 269.05499999999995 0, 224.37 10.62, 224.37 10.62, 197.37 0, 197.37 0, 170.37 10.62, 170.37 10.62, 143.37 0, 143.37 0, 116.36999999999999 10.62, 116.36999999999999 10.62, 89.36999999999999 0, 89.36999999999999 0, 44.684999999999995 10.62, 44.684999999999995 "/> 
</g>
<!-- Bottom--> 
<g transform="translate(313.73999999999995, 180.99) " > 
<polygon style="stroke:#000000; fill:none; stroke-width:0.9" points="10.62, 10.62 39.059999999999995, 10.62 39.059999999999995, 0 78.11999999999999, 0 78.11999999999999, 10.62 105.11999999999999, 10.62 105.11999999999999, 0 132.12, 0 132.12, 10.62 159.12, 10.62 159.12, 0 186.12, 0 186.12, 10.62 213.12, 10.62 213.12, 0 252.17999999999998, 0 252.17999999999998, 10.62 280.61999999999995, 10.62 280.61999999999995, 44.684999999999995 291.23999999999995, 44.684999999999995 291.23999999999995, 89.36999999999999 280.61999999999995, 89.36999999999999 280.61999999999995, 116.36999999999999 291.23999999999995, 116.36999999999999 291.23999999999995, 143.37 280.61999999999995, 143.37 280.61999999999995, 170.37 291.23999999999995, 170.37 291.23999999999995, 197.37 280.61999999999995, 197.37 280.61999999999995, 224.37 291.23999999999995, 224.37 291.23999999999995, 269.05499999999995 280.61999999999995, 269.05499999999995 280.62, 303.11999999999995 252.17999999999998, 303.11999999999995 252.17999999999998, 313.73999999999995 213.12, 313.73999999999995 213.12, 303.11999999999995 186.12, 303.11999999999995 186.12, 313.73999999999995 159.12, 313.73999999999995 159.12, 303.11999999999995 132.12, 303.11999999999995 132.12, 313.73999999999995 105.11999999999999, 313.73999999999995 105.11999999999999, 303.11999999999995 78.11999999999999, 303.11999999999995 78.11999999999999, 313.73999999999995 39.059999999999995, 313.73999999999995 39.059999999999995, 303.11999999999995 10.62, 303.12 10.62, 269.05499999999995 0, 269.05499999999995 0, 224.37 10.62, 224.37 10.62, 197.37 0, 197.37 0, 170.37 10.62, 170.37 10.62, 143.37 0, 143.37 0, 116.36999999999999 10.62, 116.36999999999999 10.62, 89.36999999999999 0, 89.36999999999999 0, 44.684999999999995 10.62, 44.684999999999995 "/> 
</g></svg>